HIERARCHY
ROOT HumanoidRoot
{
	OFFSET 0 0 0
	CHANNELS 6 Xposition Yposition Zposition Xrotation Yrotation Zrotation
	JOINT sacroiliac
	{
		OFFSET 0 -1.1353 0
		CHANNELS 3 Xrotation Yrotation Zrotation
		JOINT l_hip
		{
			OFFSET 10.2798 -17.1357 -5.3785
			CHANNELS 3 Xrotation Yrotation Zrotation
			JOINT l_knee
			{
				OFFSET -0.3099 -38.5987 -1.59158
				CHANNELS 3 Xrotation Yrotation Zrotation
				JOINT l_ankle
				{
					OFFSET -0.6125 -40.5942 -1.6968
					CHANNELS 3 Xrotation Yrotation Zrotation
					JOINT l_subtalar
					{
						OFFSET 0 -3.6398 1.4964
						CHANNELS 3 Xrotation Yrotation Zrotation
						End Site
						{
							OFFSET 1.0394 -1.5439 8.5199
						}
					}
					End Site
					{
						OFFSET 0 -5.04336 -1.13392
					}
				}
			}
		}
		JOINT r_hip
		{
			OFFSET -10.2798 -17.1357 -5.3785
			CHANNELS 3 Xrotation Yrotation Zrotation
			JOINT r_knee
			{
				OFFSET 0.3099 -38.5987 -1.59158
				CHANNELS 3 Xrotation Yrotation Zrotation
				JOINT r_ankle
				{
					OFFSET 0.6125 -40.5942 -1.6968
					CHANNELS 3 Xrotation Yrotation Zrotation
					JOINT r_subtalar
					{
						OFFSET 0 -3.6398 1.4964
						CHANNELS 3 Xrotation Yrotation Zrotation
						End Site
						{
							OFFSET -1.0394 -1.5439 8.5199
						}
					}
					End Site
					{
						OFFSET 0 -5.043 -1.134
					}
				}
			}
		}
	}
	JOINT vl5
	{
		OFFSET 0 -0.6353 0
		CHANNELS 3 Xrotation Yrotation Zrotation
		JOINT vl4
		{
			OFFSET 0 0.7 0
			CHANNELS 3 Xrotation Yrotation Zrotation
			JOINT vl3
			{
				OFFSET 0 0.8 0
				CHANNELS 3 Xrotation Yrotation Zrotation
				JOINT vl2
				{
					OFFSET 0 1.897 0.0486
					CHANNELS 3 Xrotation Yrotation Zrotation
					JOINT vl1
					{
						OFFSET 0 2.045 0.0003
						CHANNELS 3 Xrotation Yrotation Zrotation
						JOINT vt12
						{
							OFFSET 0 2.238 0.0006
							CHANNELS 3 Xrotation Yrotation Zrotation
							JOINT vt11
							{
								OFFSET 0 2.5 -0.1351
								CHANNELS 3 Xrotation Yrotation Zrotation
								JOINT vt10
								{
									OFFSET 0 2.5 -0.1178
									CHANNELS 3 Xrotation Yrotation Zrotation
									JOINT vt9
									{
										OFFSET 0 2.849 -0.2703
										CHANNELS 3 Xrotation Yrotation Zrotation
										JOINT vt8
										{
											OFFSET 0 2.675 -0.5349
											CHANNELS 3 Xrotation Yrotation Zrotation
											JOINT vt7
											{
												OFFSET 0 2.566 -0.5733
												CHANNELS 3 Xrotation Yrotation Zrotation
												JOINT vt6
												{
													OFFSET 0 2.556 -0.3506
													CHANNELS 3 Xrotation Yrotation Zrotation
													JOINT vt5
													{
														OFFSET 0 2.283 -0.2607
														CHANNELS 3 Xrotation Yrotation Zrotation
														JOINT vt4
														{
															OFFSET 0 2.199 -0.1623
															CHANNELS 3 Xrotation Yrotation Zrotation
															JOINT vt3
															{
																OFFSET 0 2.052 -0.0347
																CHANNELS 3 Xrotation Yrotation Zrotation
																JOINT vt2
																{
																	OFFSET 0 2.019 0.2072
																	CHANNELS 3 Xrotation Yrotation Zrotation
																	JOINT vt1
																	{
																		OFFSET 0 2.243 0.3126
																		CHANNELS 3 Xrotation Yrotation Zrotation
																		JOINT vc7
																		{
																			OFFSET 0 2.848 0.4338
																			CHANNELS 3 Xrotation Yrotation Zrotation
																			JOINT vc6
																			{
																				OFFSET 0 3.185 0.629
																				CHANNELS 3 Xrotation Yrotation Zrotation
																				JOINT vc5
																				{
																					OFFSET 0 2.973 0.7817
																					CHANNELS 3 Xrotation Yrotation Zrotation
																					JOINT vc4
																					{
																						OFFSET 0 2.995 0.7979
																						CHANNELS 3 Xrotation Yrotation Zrotation
																						JOINT vc3
																						{
																							OFFSET 0 3.26 0.4094
																							CHANNELS 3 Xrotation Yrotation Zrotation
																							JOINT vc2
																							{
																								OFFSET 0 3.443 -0.0721
																								CHANNELS 3 Xrotation Yrotation Zrotation
																								JOINT vc1
																								{
																									OFFSET 0 3.976 -0.4291
																									CHANNELS 3 Xrotation Yrotation Zrotation
																									End Site
																									{
																										OFFSET 0 3.859 -0.8628
																									}
																								}
																							}
																						}
																					}
																				}
																			}
																		}
																		JOINT l_sternoclavicular
																		{
																			OFFSET 3.3 4.549 6.42398
																			CHANNELS 3 Xrotation Yrotation Zrotation
																			JOINT l_shoulder
																			{
																				OFFSET 14.44 2.12 -6.58801
																				CHANNELS 3 Xrotation Yrotation Zrotation
																				JOINT l_elbow
																				{
																					OFFSET 4.102 -29.661 -2.1
																					CHANNELS 3 Xrotation Yrotation Zrotation
																					JOINT l_wrist
																					{
																						OFFSET -0.02 -26.127 3.336
																						CHANNELS 3 Xrotation Yrotation Zrotation
																						JOINT l_thumb1
																						{
																							OFFSET -2.3749 -2.345 3.1384
																							CHANNELS 3 Xrotation Yrotation Zrotation
																							End Site
																							{
																								OFFSET -0.3096 -2.4682 3.5659
																							}
																						}
																						JOINT l_index0
																						{
																							OFFSET -0.8951 -2.5867 1.672
																							CHANNELS 3 Xrotation Yrotation Zrotation
																							JOINT l_index1
																							{
																								OFFSET -0.9452 -6.7163 2.3003
																								CHANNELS 3 Xrotation Yrotation Zrotation
																								End Site
																								{
																									OFFSET 0 -4.1184 0
																								}
																							}
																						}
																						JOINT l_middle0
																						{
																							OFFSET -0.4247 -2.6874 0.6936
																							CHANNELS 3 Xrotation Yrotation Zrotation
																							JOINT l_middle1
																							{
																								OFFSET -0.8832 -6.9793 1.0551
																								CHANNELS 3 Xrotation Yrotation Zrotation
																								End Site
																								{
																									OFFSET 0 -4.8639 0
																								}
																							}
																						}
																						JOINT l_ring0
																						{
																							OFFSET -0.2548 -2.6533 -0.1292
																							CHANNELS 3 Xrotation Yrotation Zrotation
																							JOINT l_ring1
																							{
																								OFFSET -1.0013 -6.8347 0
																								CHANNELS 3 Xrotation Yrotation Zrotation
																								End Site
																								{
																									OFFSET 0 -3.9095 0
																								}
																							}
																						}
																						JOINT l_pinky0
																						{
																							OFFSET -0.3139 -2.5773 -0.9018
																							CHANNELS 3 Xrotation Yrotation Zrotation
																							JOINT l_pinky1
																							{
																								OFFSET -1.0029 -6.1169 -1.2064
																								CHANNELS 3 Xrotation Yrotation Zrotation
																								End Site
																								{
																									OFFSET 0 -2.8524 0
																								}
																							}
																						}
																					}
																				}
																			}
																		}
																		JOINT r_sternoclavicular
																		{
																			OFFSET -3.3 4.549 6.42398
																			CHANNELS 3 Xrotation Yrotation Zrotation
																			JOINT r_shoulder
																			{
																				OFFSET -14.44 2.12 -6.58801
																				CHANNELS 3 Xrotation Yrotation Zrotation
																				JOINT r_elbow
																				{
																					OFFSET -4.1016 -29.661 -2.0997
																					CHANNELS 3 Xrotation Yrotation Zrotation
																					JOINT r_wrist
																					{
																						OFFSET 0.0198 -26.1267 3.3363
																						CHANNELS 3 Xrotation Yrotation Zrotation
																						JOINT r_thumb1
																						{
																							OFFSET 2.3568 -2.3387 3.1372
																							CHANNELS 3 Xrotation Yrotation Zrotation
																							End Site
																							{
																								OFFSET 0.3164 -2.4748 3.5608
																							}
																						}
																						JOINT r_index0
																						{
																							OFFSET 0.8951 -2.5867 1.672
																							CHANNELS 3 Xrotation Yrotation Zrotation
																							JOINT r_index1
																							{
																								OFFSET 0.9336 -6.7114 2.2917
																								CHANNELS 3 Xrotation Yrotation Zrotation
																								End Site
																								{
																									OFFSET 0 -4.1193 0
																								}
																							}
																						}
																						JOINT r_middle0
																						{
																							OFFSET 0.4247 -2.6874 0.6936
																							CHANNELS 3 Xrotation Yrotation Zrotation
																							JOINT r_middle1
																							{
																								OFFSET 0.8717 -6.9725 1.0462
																								CHANNELS 3 Xrotation Yrotation Zrotation
																								End Site
																								{
																									OFFSET 0 -4.8637 0
																								}
																							}
																						}
																						JOINT r_ring0
																						{
																							OFFSET 0.2548 -2.6533 -0.1292
																							CHANNELS 3 Xrotation Yrotation Zrotation
																							JOINT r_ring1
																							{
																								OFFSET 0.9866 -6.8264 -0.0079
																								CHANNELS 3 Xrotation Yrotation Zrotation
																								End Site
																								{
																									OFFSET 0 -3.9086 0
																								}
																							}
																						}
																						JOINT r_pinky0
																						{
																							OFFSET 0.3139 -2.5773 -0.9018
																							CHANNELS 3 Xrotation Yrotation Zrotation
																							JOINT r_pinky1
																							{
																								OFFSET 0.9908 -6.1065 -1.2061
																								CHANNELS 3 Xrotation Yrotation Zrotation
																								End Site
																								{
																									OFFSET 0 -2.8628 0
																								}
																							}
																						}
																					}
																				}
																			}
																		}
																	}
																}
															}
														}
													}
												}
											}
										}
									}
								}
							}
						}
					}
				}
			}
		}
	}
}
MOTION
Frames: 4
Frame Time: 0.0416667
33.6173 97.6584 -22.0404 0.0733664 44.8983 7.63061 0 0 0 -13.6495 7.61813 -7.55622 33.942 20.7121 -5.45678 -22.2736 -0.770287 3.13331 0 0 0 -31.249 8.15251 -17.2311 13.2933 0.709392 7.29739 11.838 -0.0599676 14.143 0 0 0 0.447525 -0.508778 -2.44085 1.1403 -0.132955 -0.726166 1.13999 -0.13544 -0.726176 1.13969 -0.137927 -0.726132 1.13944 -0.140417 -0.726035 1.13921 -0.142907 -0.725885 0 0 0 0 0 0 1.13901 -0.145394 -0.725682 0 0 0 1.13884 -0.14788 -0.725427 0 0 0 0 0 0 1.1387 -0.150362 -0.725118 0 0 0 0 0 0 1.13859 -0.152837 -0.724757 0 0 0 0 0 0 0 0 0 -22.2598 0.98089 2.98452 0 0 0 0 0 0 0 0 0 0 0 0 31.1972 -3.77736 33.4906 -42.4939 -58.9217 -24.6035 -2.20379 -0.0462235 11.5426 0 0 0 0 0 0 0 0 0 0 0 0 0 0 0 0 0 0 0 0 0 0 0 0 0 0 0 0 0 0 9.93925 -3.40946 -29.9068 -33.9712 41.869 23.252 1.4763 -0.311855 -11.1696 0 0 0 0 0 0 0 0 0 0 0 0 0 0 0 0 0 0 0 0 0 0 0 0 0 0 0 
34.4022 98.9477 -21.034 0.680992 47.1462 5.82889 0 0 0 -10.9312 5.80502 -7.25517 27.3501 20.3276 -3.12768 -19.4866 -0.459985 2.07224 0 0 0 -25.8072 9.78142 -16.1405 7.5214 -3.402 6.71092 13.7133 0.0277894 14.2066 0 0 0 0.207777 -0.574095 -2.38946 0.645817 -0.299144 -0.59466 0.645306 -0.300795 -0.594379 0.644812 -0.302446 -0.594075 0.644333 -0.304099 -0.593748 0.643872 -0.305751 -0.593399 0 0 0 0 0 0 0.643428 -0.307403 -0.593026 0 0 0 0.643 -0.309053 -0.59263 0 0 0 0 0 0 0.642589 -0.310703 -0.592211 0 0 0 0 0 0 0.642195 -0.312351 -0.59177 0 0 0 0 0 0 0 0 0 -18.603 0.251072 4.25214 0 0 0 0 0 0 0 0 0 0 0 0 35.0048 1.67372 38.2238 -38.4152 -62.597 -24.1172 -1.90443 0.00821419 -4.15427 0 0 0 0 0 0 0 0 0 0 0 0 0 0 0 0 0 0 0 0 0 0 0 0 0 0 0 0 0 0 11.3917 -8.78277 -36.6622 -22.1806 38.5038 16.4136 4.16801 0.105714 1.97847 0 0 0 0 0 0 0 0 0 0 0 0 0 0 0 0 0 0 0 0 0 0 0 0 0 0 0 
35.4291 100.056 -19.8853 -1.45139 48.9158 5.6099 0 0 0 -6.22971 3.50743 -6.36124 21.8433 20.4082 -0.85765 -17.7721 -0.048876 0.501949 0 0 0 -21.0288 9.48476 -13.8033 4.92677 -6.01364 4.62781 14.2662 -0.0259738 15.3296 0 0 0 0.00564866 -0.574676 -2.40467 0.23612 -0.441286 -0.40735 0.235381 -0.442113 -0.406902 0.23465 -0.442941 -0.406445 0.233927 -0.44377 -0.405977 0.233212 -0.444601 -0.405499 0 0 0 0 0 0 0.232506 -0.445434 -0.405012 0 0 0 0.231809 -0.446268 -0.404515 0 0 0 0 0 0 0.23112 -0.447103 -0.404008 0 0 0 0 0 0 0.23044 -0.447938 -0.403491 0 0 0 0 0 0 0 0 0 -10.7296 0.149993 5.11723 0 0 0 0 0 0 0 0 0 0 0 0 35.9153 8.06579 44.2651 -28.3812 -62.9705 -18.6466 0.323558 -0.319231 -17.6827 0 0 0 0 0 0 0 0 0 0 0 0 0 0 0 0 0 0 0 0 0 0 0 0 0 0 0 0 0 0 11.2722 -12.9212 -44.9035 -13.8268 32.8652 9.99021 7.57746 0.970828 11.8023 0 0 0 0 0 0 0 0 0 0 0 0 0 0 0 0 0 0 0 0 0 0 0 0 0 0 0 
36.6403 100.927 -18.7837 -4.82546 50.3626 6.0681 0 0 0 -0.905042 1.71441 -4.71344 17.378 20.1833 1.14543 -16.8449 0.321502 -0.974239 0 0 0 -15.6351 6.81895 -11.158 1.0985 -6.51282 2.86445 15.8484 0.148378 15.871 0 0 0 -0.173012 -0.488963 -2.18647 -0.163263 -0.560167 -0.210094 -0.164149 -0.560086 -0.209676 -0.165029 -0.560008 -0.20925 -0.165907 -0.559932 -0.208815 -0.166779 -0.55986 -0.208371 0 0 0 0 0 0 -0.167647 -0.559789 -0.207919 0 0 0 -0.168512 -0.559723 -0.207459 0 0 0 0 0 0 -0.169371 -0.559658 -0.206989 0 0 0 0 0 0 -0.170226 -0.559596 -0.206512 0 0 0 0 0 0 0 0 0 -0.775195 0.293487 5.96497 0 0 0 0 0 0 0 0 0 0 0 0 33.958 13.6697 53.0219 -16.5524 -59.6073 -11.4102 3.35909 -1.15646 -25.5363 0 0 0 0 0 0 0 0 0 0 0 0 0 0 0 0 0 0 0 0 0 0 0 0 0 0 0 0 0 0 8.40313 -16.5998 -54.6322 -8.78692 25.9565 5.11157 9.43595 1.72756 17.4523 0 0 0 0 0 0 0 0 0 0 0 0 0 0 0 0 0 0 0 0 0 0 0 0 0 0 0 
